<svg width="257" height="137" viewBox="0 0 257 137" fill="none" xmlns="http://www.w3.org/2000/svg">
<rect x="37.1123" y="32.8164" width="155.83" height="64.1773" fill="#FFECEC"/>
<rect x="49.7754" y="20.875" width="130.096" height="95.8541" rx="8" stroke="#E72D38" stroke-width="4"/>
<rect x="154.455" y="51.7773" width="38.6136" height="3.94912" fill="#FFECEC"/>
<line x1="48.5923" y1="26.5059" x2="181.868" y2="26.5059" stroke="#E72D38" stroke-width="4"/>
<line x1="48.5923" y1="100.732" x2="181.868" y2="100.732" stroke="#E72D38" stroke-width="4"/>
<g clip-path="url(#clip0_1818_5345)">
<path d="M255.692 36.2185C255.735 36.1737 255.785 36.1379 255.842 36.1131C255.898 36.0883 255.959 36.0751 256.021 36.0743C256.083 36.0734 256.144 36.0849 256.201 36.1081C256.258 36.1313 256.31 36.1657 256.354 36.2093C256.397 36.2529 256.432 36.3048 256.455 36.362C256.478 36.4191 256.49 36.4803 256.489 36.542C256.488 36.6036 256.475 36.6645 256.45 36.721C256.425 36.7774 256.389 36.8283 256.344 36.8707L254.993 38.2224C254.991 38.2242 254.989 38.2263 254.988 38.2287C254.988 38.231 254.987 38.2335 254.987 38.236C254.987 38.2386 254.988 38.2411 254.988 38.2434C254.989 38.2458 254.991 38.2479 254.993 38.2497L256.344 39.6014C256.388 39.6441 256.422 39.695 256.446 39.7511C256.47 39.8072 256.482 39.8674 256.482 39.9283C256.482 39.9892 256.471 40.0496 256.447 40.1059C256.424 40.1622 256.39 40.2134 256.347 40.2565C256.304 40.2995 256.253 40.3336 256.197 40.3568C256.14 40.38 256.08 40.3919 256.019 40.3916C255.958 40.3914 255.898 40.3791 255.842 40.3554C255.786 40.3318 255.735 40.2973 255.692 40.2539L254.34 38.9021C254.339 38.9004 254.336 38.8989 254.334 38.898C254.332 38.897 254.329 38.8965 254.327 38.8965C254.324 38.8965 254.322 38.897 254.319 38.898C254.317 38.8989 254.315 38.9004 254.313 38.9021L252.961 40.2539C252.919 40.2973 252.868 40.3318 252.812 40.3555C252.756 40.3791 252.695 40.3914 252.634 40.3917C252.574 40.3919 252.513 40.3801 252.457 40.357C252.401 40.3338 252.349 40.2997 252.306 40.2566C252.263 40.2136 252.229 40.1624 252.206 40.1061C252.183 40.0498 252.171 39.9894 252.171 39.9285C252.171 39.8676 252.184 39.8074 252.207 39.7513C252.231 39.6951 252.265 39.6442 252.309 39.6015L253.661 38.2498C253.662 38.248 253.664 38.2459 253.665 38.2436C253.666 38.2412 253.666 38.2387 253.666 38.2362C253.666 38.2337 253.666 38.2312 253.665 38.2288C253.664 38.2265 253.662 38.2244 253.661 38.2226L252.309 36.8709C252.224 36.7841 252.176 36.6672 252.176 36.5455C252.177 36.4238 252.225 36.3072 252.311 36.2211C252.398 36.135 252.514 36.0865 252.636 36.086C252.757 36.0854 252.874 36.133 252.961 36.2184L254.313 37.5701C254.315 37.5719 254.317 37.5733 254.319 37.5743C254.322 37.5753 254.324 37.5758 254.327 37.5758C254.329 37.5758 254.332 37.5753 254.334 37.5743C254.336 37.5733 254.338 37.5719 254.34 37.5701L255.692 36.2184L255.692 36.2185Z" fill="#E72D38"/>
</g>
<g clip-path="url(#clip1_1818_5345)">
<path d="M171.005 0.443149C171.048 0.39835 171.099 0.362501 171.155 0.33772C171.212 0.31294 171.272 0.29973 171.334 0.298873C171.396 0.298015 171.457 0.309527 171.514 0.332728C171.571 0.355929 171.623 0.390348 171.667 0.433951C171.71 0.477554 171.745 0.529455 171.768 0.586588C171.791 0.64372 171.803 0.704924 171.802 0.766582C171.801 0.828239 171.788 0.889099 171.763 0.945564C171.738 1.00203 171.702 1.05295 171.657 1.09533L170.306 2.44705C170.304 2.44883 170.303 2.45096 170.302 2.45329C170.301 2.45563 170.3 2.45813 170.3 2.46066C170.3 2.46319 170.301 2.46569 170.302 2.46803C170.303 2.47036 170.304 2.47248 170.306 2.47427L171.657 3.82599C171.701 3.8687 171.735 3.91957 171.759 3.97569C171.783 4.03181 171.795 4.09206 171.795 4.15296C171.796 4.21386 171.784 4.2742 171.761 4.33052C171.737 4.38683 171.703 4.438 171.66 4.48107C171.617 4.52413 171.566 4.55825 171.51 4.58145C171.453 4.60465 171.393 4.61646 171.332 4.61622C171.271 4.61598 171.211 4.60369 171.155 4.58004C171.099 4.5564 171.048 4.52188 171.005 4.47848L169.653 3.12675C169.652 3.12496 169.65 3.12354 169.647 3.12257C169.645 3.12161 169.642 3.12111 169.64 3.12111C169.637 3.12111 169.635 3.12161 169.632 3.12257C169.63 3.12354 169.628 3.12496 169.626 3.12675L168.274 4.47848C168.232 4.52189 168.181 4.55643 168.125 4.58008C168.069 4.60374 168.008 4.61605 167.948 4.6163C167.887 4.61656 167.826 4.60475 167.77 4.58157C167.714 4.55838 167.662 4.52428 167.619 4.48122C167.576 4.43816 167.542 4.387 167.519 4.3307C167.496 4.27439 167.484 4.21404 167.484 4.15314C167.484 4.09224 167.497 4.03199 167.52 3.97587C167.544 3.91975 167.579 3.86886 167.622 3.82614L168.974 2.47442C168.976 2.47264 168.977 2.47052 168.978 2.46818C168.979 2.46584 168.979 2.46334 168.979 2.46081C168.979 2.45828 168.979 2.45578 168.978 2.45344C168.977 2.45111 168.976 2.44899 168.974 2.4472L167.622 1.09548C167.537 1.00874 167.489 0.891773 167.489 0.77007C167.49 0.648367 167.539 0.531785 167.625 0.445717C167.711 0.359649 167.827 0.311069 167.949 0.31056C168.071 0.31005 168.188 0.357651 168.274 0.442995L169.626 1.79472C169.628 1.79651 169.63 1.79793 169.632 1.7989C169.635 1.79986 169.637 1.80036 169.64 1.80036C169.642 1.80036 169.645 1.79986 169.647 1.7989C169.649 1.79793 169.651 1.79651 169.653 1.79472L171.005 0.442995L171.005 0.443149Z" fill="#E72D38"/>
</g>
<g clip-path="url(#clip2_1818_5345)">
<path d="M66.9769 10.0877C67.0192 10.0429 67.0702 10.007 67.1266 9.98225C67.1831 9.95747 67.244 9.94426 67.3056 9.9434C67.3673 9.94255 67.4285 9.95406 67.4856 9.97726C67.5427 10.0005 67.5946 10.0349 67.6382 10.0785C67.6818 10.1221 67.7163 10.174 67.7395 10.2311C67.7627 10.2883 67.7742 10.3495 67.7733 10.4111C67.7725 10.4728 67.7593 10.5336 67.7345 10.5901C67.7097 10.6466 67.6738 10.6975 67.629 10.7399L66.2773 12.0916C66.2755 12.0934 66.2741 12.0955 66.2731 12.0978C66.2722 12.1002 66.2717 12.1027 66.2717 12.1052C66.2717 12.1077 66.2722 12.1102 66.2731 12.1126C66.2741 12.1149 66.2755 12.117 66.2773 12.1188L67.629 13.4705C67.6725 13.5132 67.707 13.5641 67.7306 13.6202C67.7543 13.6763 67.7666 13.7366 67.7669 13.7975C67.7671 13.8584 67.7553 13.9187 67.7321 13.975C67.7089 14.0314 67.6748 14.0825 67.6318 14.1256C67.5887 14.1687 67.5376 14.2028 67.4813 14.226C67.425 14.2492 67.3646 14.261 67.3037 14.2608C67.2428 14.2605 67.1826 14.2482 67.1264 14.2246C67.0703 14.2009 67.0194 14.1664 66.9767 14.123L65.625 12.7713C65.6232 12.7695 65.6211 12.7681 65.6187 12.7671C65.6164 12.7661 65.6139 12.7656 65.6114 12.7656C65.6089 12.7656 65.6063 12.7661 65.604 12.7671C65.6017 12.7681 65.5996 12.7695 65.5978 12.7713L64.246 14.123C64.2033 14.1664 64.1525 14.201 64.0963 14.2246C64.0402 14.2483 63.98 14.2606 63.9191 14.2608C63.8582 14.2611 63.7978 14.2493 63.7415 14.2261C63.6852 14.2029 63.634 14.1688 63.591 14.1258C63.5479 14.0827 63.5138 14.0315 63.4906 13.9752C63.4674 13.9189 63.4556 13.8586 63.4558 13.7977C63.4561 13.7368 63.4684 13.6765 63.492 13.6204C63.5156 13.5643 63.5502 13.5134 63.5936 13.4707L64.9453 12.119C64.9471 12.1172 64.9485 12.115 64.9495 12.1127C64.9504 12.1104 64.9509 12.1079 64.9509 12.1053C64.9509 12.1028 64.9504 12.1003 64.9495 12.098C64.9485 12.0956 64.9471 12.0935 64.9453 12.0917L63.5936 10.74C63.5082 10.6533 63.4606 10.5363 63.461 10.4146C63.4615 10.2929 63.5101 10.1763 63.5961 10.0902C63.6822 10.0042 63.7987 9.9556 63.9205 9.95509C64.0422 9.95458 64.1591 10.0022 64.2459 10.0875L65.5976 11.4392C65.5994 11.441 65.6015 11.4425 65.6039 11.4434C65.6062 11.4444 65.6087 11.4449 65.6112 11.4449C65.6138 11.4449 65.6163 11.4444 65.6186 11.4434C65.6209 11.4425 65.623 11.441 65.6248 11.4392L66.9766 10.0875L66.9769 10.0877Z" fill="#E72D38"/>
</g>
<g clip-path="url(#clip3_1818_5345)">
<path d="M20.4335 48.4314C20.4759 48.3866 20.5268 48.3508 20.5833 48.326C20.6398 48.3012 20.7006 48.288 20.7623 48.2872C20.8239 48.2863 20.8851 48.2978 20.9423 48.321C20.9994 48.3442 21.0513 48.3786 21.0949 48.4222C21.1385 48.4658 21.1729 48.5177 21.1961 48.5749C21.2193 48.632 21.2308 48.6932 21.23 48.7549C21.2291 48.8165 21.2159 48.8774 21.1911 48.9338C21.1664 48.9903 21.1305 49.0412 21.0857 49.0836L19.734 50.4353C19.7322 50.4371 19.7308 50.4392 19.7298 50.4416C19.7288 50.4439 19.7283 50.4464 19.7283 50.4489C19.7283 50.4515 19.7288 50.454 19.7298 50.4563C19.7308 50.4586 19.7322 50.4608 19.734 50.4625L21.0857 51.8143C21.1291 51.857 21.1637 51.9079 21.1873 51.964C21.211 52.0201 21.2233 52.0803 21.2235 52.1412C21.2238 52.2021 21.212 52.2625 21.1888 52.3188C21.1656 52.3751 21.1315 52.4263 21.0885 52.4693C21.0454 52.5124 20.9942 52.5465 20.9379 52.5697C20.8816 52.5929 20.8213 52.6047 20.7604 52.6045C20.6995 52.6043 20.6392 52.592 20.5831 52.5683C20.527 52.5447 20.4761 52.5102 20.4334 52.4668L19.0817 51.115C19.0799 51.1132 19.0777 51.1118 19.0754 51.1109C19.0731 51.1099 19.0706 51.1094 19.068 51.1094C19.0655 51.1094 19.063 51.1099 19.0607 51.1109C19.0583 51.1118 19.0562 51.1132 19.0544 51.115L17.7027 52.4668C17.66 52.5102 17.6091 52.5447 17.553 52.5684C17.4969 52.592 17.4366 52.6043 17.3757 52.6046C17.3148 52.6048 17.2545 52.593 17.1982 52.5698C17.1419 52.5467 17.0907 52.5126 17.0476 52.4695C17.0046 52.4264 16.9705 52.3753 16.9473 52.319C16.9241 52.2627 16.9122 52.2023 16.9125 52.1414C16.9127 52.0805 16.925 52.0203 16.9487 51.9642C16.9723 51.908 17.0068 51.8571 17.0502 51.8144L18.4019 50.4627C18.4037 50.4609 18.4052 50.4588 18.4061 50.4565C18.4071 50.4541 18.4076 50.4516 18.4076 50.4491C18.4076 50.4466 18.4071 50.4441 18.4061 50.4417C18.4052 50.4394 18.4037 50.4373 18.4019 50.4355L17.0502 49.0838C16.9649 48.997 16.9172 48.8801 16.9177 48.7584C16.9182 48.6366 16.9667 48.5201 17.0528 48.434C17.1388 48.3479 17.2554 48.2994 17.3771 48.2988C17.4988 48.2983 17.6158 48.3459 17.7026 48.4313L19.0543 49.783C19.0561 49.7848 19.0582 49.7862 19.0605 49.7872C19.0629 49.7881 19.0654 49.7886 19.0679 49.7886C19.0704 49.7886 19.0729 49.7881 19.0753 49.7872C19.0776 49.7862 19.0797 49.7848 19.0815 49.783L20.4332 48.4313L20.4335 48.4314Z" fill="#E72D38"/>
</g>
<g clip-path="url(#clip4_1818_5345)">
<path d="M251.743 84.3123C251.785 84.2675 251.836 84.2316 251.892 84.2069C251.949 84.1821 252.01 84.1689 252.071 84.168C252.133 84.1672 252.194 84.1787 252.251 84.2019C252.309 84.2251 252.361 84.2595 252.404 84.3031C252.448 84.3467 252.482 84.3986 252.505 84.4557C252.529 84.5129 252.54 84.5741 252.539 84.6357C252.538 84.6974 252.525 84.7582 252.5 84.8147C252.476 84.8712 252.44 84.9221 252.395 84.9645L251.043 86.3162C251.041 86.318 251.04 86.3201 251.039 86.3224C251.038 86.3248 251.038 86.3273 251.038 86.3298C251.038 86.3323 251.038 86.3348 251.039 86.3372C251.04 86.3395 251.041 86.3416 251.043 86.3434L252.395 87.6951C252.438 87.7378 252.473 87.7887 252.497 87.8448C252.52 87.901 252.532 87.9612 252.533 88.0221C252.533 88.083 252.521 88.1433 252.498 88.1997C252.475 88.256 252.441 88.3071 252.398 88.3502C252.355 88.3933 252.303 88.4274 252.247 88.4506C252.191 88.4738 252.13 88.4856 252.07 88.4854C252.009 88.4851 251.948 88.4728 251.892 88.4492C251.836 88.4255 251.785 88.391 251.743 88.3476L250.391 86.9959C250.389 86.9941 250.387 86.9927 250.385 86.9917C250.382 86.9907 250.38 86.9902 250.377 86.9902C250.375 86.9902 250.372 86.9907 250.37 86.9917C250.368 86.9927 250.365 86.9941 250.364 86.9959L249.012 88.3476C248.969 88.391 248.918 88.4256 248.862 88.4492C248.806 88.4729 248.746 88.4852 248.685 88.4854C248.624 88.4857 248.564 88.4739 248.507 88.4507C248.451 88.4275 248.4 88.3934 248.357 88.3504C248.314 88.3073 248.28 88.2561 248.256 88.1998C248.233 88.1435 248.221 88.0832 248.222 88.0223C248.222 87.9614 248.234 87.9011 248.258 87.845C248.282 87.7889 248.316 87.738 248.359 87.6953L249.711 86.3436C249.713 86.3418 249.714 86.3397 249.715 86.3373C249.716 86.335 249.717 86.3325 249.717 86.33C249.717 86.3274 249.716 86.3249 249.715 86.3226C249.714 86.3203 249.713 86.3181 249.711 86.3163L248.359 84.9646C248.274 84.8779 248.226 84.7609 248.227 84.6392C248.227 84.5175 248.276 84.4009 248.362 84.3149C248.448 84.2288 248.565 84.1802 248.686 84.1797C248.808 84.1792 248.925 84.2268 249.012 84.3121L250.363 85.6639C250.365 85.6656 250.367 85.6671 250.37 85.668C250.372 85.669 250.375 85.6695 250.377 85.6695C250.38 85.6695 250.382 85.669 250.384 85.668C250.387 85.6671 250.389 85.6656 250.391 85.6639L251.742 84.3121L251.743 84.3123Z" fill="#E72D38"/>
</g>
<g clip-path="url(#clip5_1818_5345)">
<path d="M31.915 87.1834C31.9573 87.1386 32.0083 87.1027 32.0647 87.078C32.1212 87.0532 32.1821 87.04 32.2437 87.0391C32.3054 87.0382 32.3666 87.0498 32.4237 87.073C32.4808 87.0962 32.5327 87.1306 32.5764 87.1742C32.62 87.2178 32.6544 87.2697 32.6776 87.3268C32.7008 87.384 32.7123 87.4452 32.7114 87.5068C32.7106 87.5685 32.6974 87.6293 32.6726 87.6858C32.6478 87.7423 32.612 87.7932 32.5672 87.8356L31.2154 89.1873C31.2136 89.1891 31.2122 89.1912 31.2113 89.1935C31.2103 89.1959 31.2098 89.1984 31.2098 89.2009C31.2098 89.2034 31.2103 89.2059 31.2113 89.2083C31.2122 89.2106 31.2136 89.2127 31.2154 89.2145L32.5672 90.5662C32.6106 90.6089 32.6451 90.6598 32.6688 90.7159C32.6924 90.772 32.7047 90.8323 32.705 90.8932C32.7052 90.9541 32.6934 91.0144 32.6702 91.0708C32.6471 91.1271 32.613 91.1782 32.5699 91.2213C32.5268 91.2644 32.4757 91.2985 32.4194 91.3217C32.3631 91.3449 32.3027 91.3567 32.2418 91.3565C32.1809 91.3562 32.1207 91.3439 32.0645 91.3203C32.0084 91.2966 31.9575 91.2621 31.9148 91.2187L30.5631 89.867C30.5613 89.8652 30.5592 89.8638 30.5569 89.8628C30.5545 89.8618 30.552 89.8613 30.5495 89.8613C30.547 89.8613 30.5445 89.8618 30.5421 89.8628C30.5398 89.8638 30.5377 89.8652 30.5359 89.867L29.1842 91.2187C29.1415 91.2621 29.0906 91.2967 29.0345 91.3203C28.9783 91.344 28.9181 91.3563 28.8572 91.3565C28.7963 91.3568 28.7359 91.345 28.6796 91.3218C28.6233 91.2986 28.5722 91.2645 28.5291 91.2215C28.486 91.1784 28.4519 91.1272 28.4287 91.0709C28.4055 91.0146 28.3937 90.9543 28.3939 90.8934C28.3942 90.8325 28.4065 90.7722 28.4301 90.7161C28.4537 90.66 28.4883 90.6091 28.5317 90.5664L29.8834 89.2147C29.8852 89.2129 29.8866 89.2107 29.8876 89.2084C29.8885 89.2061 29.889 89.2036 29.889 89.201C29.889 89.1985 29.8885 89.196 29.8876 89.1937C29.8866 89.1913 29.8852 89.1892 29.8834 89.1874L28.5317 87.8357C28.4463 87.749 28.3987 87.632 28.3992 87.5103C28.3996 87.3886 28.4482 87.272 28.5342 87.186C28.6203 87.0999 28.7369 87.0513 28.8586 87.0508C28.9803 87.0503 29.0972 87.0979 29.184 87.1832L30.5357 88.535C30.5375 88.5367 30.5396 88.5382 30.542 88.5391C30.5443 88.5401 30.5468 88.5406 30.5493 88.5406C30.5519 88.5406 30.5544 88.5401 30.5567 88.5391C30.559 88.5382 30.5612 88.5367 30.5629 88.535L31.9147 87.1832L31.915 87.1834Z" fill="#E72D38"/>
</g>
<path d="M108.889 130.1V119.158H120.909V130.1V130.739L121.279 131.259L122.935 133.587H106.734L108.475 131.318L108.889 130.779V130.1Z" stroke="#E72D38" stroke-width="4"/>
<circle cx="239.641" cy="129.798" r="1.5" stroke="#6D6D6D" stroke-width="1.51086"/>
<circle cx="46.3391" cy="129.798" r="1.5" stroke="#6D6D6D" stroke-width="1.51086"/>
<circle cx="44.0817" cy="7.38824" r="1.5" stroke="#6D6D6D" stroke-width="1.51086"/>
<line x1="58.437" y1="133.742" x2="171.824" y2="133.742" stroke="#E72D38" stroke-width="4"/>
<line x1="16.6077" y1="133.742" x2="53.1047" y2="133.742" stroke="#E72D38" stroke-width="4"/>
<line x1="175.925" y1="133.742" x2="183.307" y2="133.742" stroke="#E72D38" stroke-width="4"/>
<line x1="187.803" y1="134.027" x2="243.968" y2="134.027" stroke="#E72D38" stroke-width="4"/>
<line x1="209.047" y1="36.8496" x2="230.447" y2="36.8496" stroke="black" stroke-width="3" stroke-linecap="round"/>
<line x1="194.568" y1="20.002" x2="204.281" y2="20.002" stroke="black" stroke-width="3" stroke-linecap="round"/>
<line x1="73.6742" y1="3.63281" x2="89.5378" y2="3.63281" stroke="black" stroke-width="3" stroke-linecap="round"/>
<line x1="18.1077" y1="57.1504" x2="22.8992" y2="57.1504" stroke="black" stroke-width="3" stroke-linecap="round"/>
<line x1="249.417" y1="93.0312" x2="254.208" y2="93.0312" stroke="black" stroke-width="3" stroke-linecap="round"/>
<line x1="1.5" y1="120.303" x2="15.1082" y2="120.303" stroke="black" stroke-width="3" stroke-linecap="round"/>
<rect x="151.383" y="55.7285" width="72.8394" height="68.4515" fill="#FFECEC"/>
<rect x="158.103" y="53.7246" width="59.7816" height="79.8419" rx="8" stroke="#E72D38" stroke-width="4"/>
<rect x="160.959" y="56.582" width="54.0661" height="71.2974" rx="3" stroke="#E72D38" stroke-width="2"/>
<circle cx="187.479" cy="131.708" r="0.785919" fill="#EEA9AD" stroke="#E72D38"/>
<circle cx="188.765" cy="92.3617" r="17.0316" fill="white" stroke="#E72D38" stroke-width="4"/>
<path fill-rule="evenodd" clip-rule="evenodd" d="M184.457 89.0809C184.115 89.0809 183.837 88.7949 183.89 88.457C184.222 86.4045 185.786 84.9082 188.5 84.9082C191.215 84.9082 193.045 86.5493 193.045 88.7877C193.045 90.4094 192.243 91.5485 190.885 92.3751C189.558 93.1703 189.179 93.7242 189.179 94.8005V94.8367C189.179 94.9968 189.116 95.1502 189.002 95.2634C188.889 95.3765 188.736 95.4401 188.576 95.4401H187.647C187.488 95.4401 187.335 95.3773 187.222 95.2655C187.109 95.1537 187.045 95.0017 187.043 94.8428L187.04 94.6014C186.988 93.1281 187.615 92.1869 189.025 91.3289C190.268 90.5663 190.71 89.9594 190.71 88.8818C190.71 87.7005 189.796 86.8329 188.386 86.8329C187.169 86.8329 186.323 87.4712 186.048 88.5246C185.968 88.8311 185.712 89.0809 185.396 89.0809H184.459H184.457ZM188.103 99.3883C188.853 99.3883 189.424 98.8164 189.424 98.073C189.424 97.3273 188.853 96.7554 188.103 96.7554C187.372 96.7554 186.791 97.3273 186.791 98.0718C186.791 98.8164 187.372 99.3883 188.103 99.3883Z" fill="#E72D38"/>
<circle cx="115.088" cy="64.7133" r="21.7895" fill="white" stroke="#E72D38" stroke-width="4"/>
<path fill-rule="evenodd" clip-rule="evenodd" d="M109.864 60.4522C109.436 60.4522 109.089 60.0947 109.155 59.6724C109.57 57.1067 111.525 55.2363 114.917 55.2363C118.311 55.2363 120.599 57.2877 120.599 60.0857C120.599 62.1129 119.596 63.5368 117.899 64.57C116.24 65.564 115.766 66.2563 115.766 67.6017V67.647C115.766 67.847 115.687 68.0388 115.545 68.1803C115.404 68.3217 115.212 68.4012 115.012 68.4012H113.851C113.652 68.4012 113.461 68.3228 113.32 68.1829C113.179 68.0431 113.098 67.8532 113.096 67.6545L113.092 67.3529C113.027 65.5112 113.811 64.3347 115.573 63.2622C117.127 62.309 117.68 61.5503 117.68 60.2033C117.68 58.7266 116.537 57.6421 114.775 57.6421C113.253 57.6421 112.196 58.4401 111.852 59.7568C111.753 60.14 111.433 60.4522 111.038 60.4522H109.866H109.864ZM114.421 73.3365C115.359 73.3365 116.072 72.6215 116.072 71.6924C116.072 70.7602 115.359 70.0453 114.421 70.0453C113.507 70.0453 112.781 70.7602 112.781 71.6909C112.781 72.6215 113.507 73.3365 114.421 73.3365Z" fill="#E72D38"/>
<defs>
<clipPath id="clip0_1818_5345">
<rect width="4.92094" height="4.92094" fill="white" transform="translate(251.866 35.7754)"/>
</clipPath>
<clipPath id="clip1_1818_5345">
<rect width="4.92094" height="4.92094" fill="white" transform="translate(167.179)"/>
</clipPath>
<clipPath id="clip2_1818_5345">
<rect width="4.92094" height="4.92094" fill="white" transform="translate(63.151 9.64453)"/>
</clipPath>
<clipPath id="clip3_1818_5345">
<rect width="4.92094" height="4.92094" fill="white" transform="translate(16.6077 47.9883)"/>
</clipPath>
<clipPath id="clip4_1818_5345">
<rect width="4.92094" height="4.92094" fill="white" transform="translate(247.917 83.8691)"/>
</clipPath>
<clipPath id="clip5_1818_5345">
<rect width="4.92094" height="4.92094" fill="white" transform="translate(28.0891 86.7402)"/>
</clipPath>
</defs>
</svg>
